{
    "asset" : {
        "generator" : "Khronos glTF Blender I/O v0.9.36",
        "version" : "2.0"
    },
    "scene" : 0,
    "scenes" : [
        {
            "extras" : {
                "glTF2ExportSettings" : {
                    "export_animations" : 0,
                    "export_apply" : 1,
                    "export_cameras" : 1,
                    "export_extras" : 1,
                    "export_format" : "GLTF_EMBEDDED",
                    "export_lights" : 1,
                    "export_selected" : 1,
                    "export_tangents" : 1
                }
            },
            "name" : "Scene",
            "nodes" : [
                0,
                2,
                3,
                4
            ]
        }
    ],
    "nodes" : [
        {
            "name" : "Empty",
            "rotation" : [
                0.5,
                0.5,
                -0.5,
                0.4999999701976776
            ],
            "translation" : [
                0.38844144344329834,
                0.0878104567527771,
                -1.1598814725875854
            ]
        },
        {
            "camera" : 0,
            "name" : "Camera_Orientation",
            "rotation" : [
                -0.7071067690849304,
                0,
                0,
                0.7071067690849304
            ]
        },
        {
            "children" : [
                1
            ],
            "name" : "Camera",
            "rotation" : [
                0.483536034822464,
                0.33687159419059753,
                -0.20870360732078552,
                0.7804827094078064
            ],
            "translation" : [
                7.358891487121582,
                4.958309173583984,
                6.925790786743164
            ]
        },
        {
            "mesh" : 0,
            "name" : "wheel1",
            "scale" : [
                1.6452997922897339,
                1,
                1
            ],
            "translation" : [
                -0.012369219213724136,
                0.0382840596139431,
                0.005469151306897402
            ]
        },
        {
            "mesh" : 1,
            "name" : "wheel2",
            "scale" : [
                1.6452997922897339,
                1,
                1
            ],
            "translation" : [
                -0.2562636733055115,
                0.43020230531692505,
                0.5575644969940186
            ]
        }
    ],
    "cameras" : [
        {
            "name" : "Camera",
            "perspective" : {
                "yfov" : 0.39959652046304894,
                "zfar" : 100,
                "znear" : 0.10000000149011612
            },
            "type" : "perspective"
        }
    ],
    "meshes" : [
        {
            "name" : "Cube.007",
            "primitives" : [
                {
                    "attributes" : {
                        "POSITION" : 0,
                        "NORMAL" : 1,
                        "TEXCOORD_0" : 2,
                        "COLOR_0" : 3,
                        "JOINTS_0" : 4,
                        "WEIGHTS_0" : 5
                    },
                    "indices" : 6
                },
                {
                    "attributes" : {
                        "POSITION" : 7,
                        "NORMAL" : 8,
                        "TEXCOORD_0" : 9,
                        "COLOR_0" : 10,
                        "JOINTS_0" : 11,
                        "WEIGHTS_0" : 12
                    },
                    "indices" : 13
                },
                {
                    "attributes" : {
                        "POSITION" : 14,
                        "NORMAL" : 15,
                        "TEXCOORD_0" : 16,
                        "COLOR_0" : 17,
                        "JOINTS_0" : 18,
                        "WEIGHTS_0" : 19
                    },
                    "indices" : 20
                }
            ]
        },
        {
            "name" : "Cube.012",
            "primitives" : [
                {
                    "attributes" : {
                        "POSITION" : 21,
                        "NORMAL" : 22,
                        "TEXCOORD_0" : 23,
                        "COLOR_0" : 24,
                        "JOINTS_0" : 25,
                        "WEIGHTS_0" : 26
                    },
                    "indices" : 6
                },
                {
                    "attributes" : {
                        "POSITION" : 27,
                        "NORMAL" : 28,
                        "TEXCOORD_0" : 29,
                        "COLOR_0" : 30,
                        "JOINTS_0" : 31,
                        "WEIGHTS_0" : 32
                    },
                    "indices" : 13
                },
                {
                    "attributes" : {
                        "POSITION" : 33,
                        "NORMAL" : 34,
                        "TEXCOORD_0" : 35,
                        "COLOR_0" : 36,
                        "JOINTS_0" : 37,
                        "WEIGHTS_0" : 38
                    },
                    "indices" : 20
                }
            ]
        }
    ],
    "accessors" : [
        {
            "bufferView" : 0,
            "componentType" : 5126,
            "count" : 61,
            "max" : [
                0.2989496886730194,
                0.7163065075874329,
                -0.9692351818084717
            ],
            "min" : [
                0.2045450508594513,
                0.3217482566833496,
                -1.3637933731079102
            ],
            "type" : "VEC3"
        },
        {
            "bufferView" : 1,
            "componentType" : 5126,
            "count" : 61,
            "type" : "VEC3"
        },
        {
            "bufferView" : 2,
            "componentType" : 5126,
            "count" : 61,
            "type" : "VEC2"
        },
        {
            "bufferView" : 3,
            "componentType" : 5126,
            "count" : 61,
            "type" : "VEC4"
        },
        {
            "bufferView" : 4,
            "componentType" : 5123,
            "count" : 61,
            "type" : "VEC4"
        },
        {
            "bufferView" : 5,
            "componentType" : 5126,
            "count" : 61,
            "type" : "VEC4"
        },
        {
            "bufferView" : 6,
            "componentType" : 5123,
            "count" : 189,
            "type" : "SCALAR"
        },
        {
            "bufferView" : 7,
            "componentType" : 5126,
            "count" : 263,
            "max" : [
                0.2989496886730194,
                0.7163065075874329,
                -0.9692351818084717
            ],
            "min" : [
                0.2045450508594513,
                0.3217482566833496,
                -1.3637933731079102
            ],
            "type" : "VEC3"
        },
        {
            "bufferView" : 8,
            "componentType" : 5126,
            "count" : 263,
            "type" : "VEC3"
        },
        {
            "bufferView" : 9,
            "componentType" : 5126,
            "count" : 263,
            "type" : "VEC2"
        },
        {
            "bufferView" : 10,
            "componentType" : 5126,
            "count" : 263,
            "type" : "VEC4"
        },
        {
            "bufferView" : 11,
            "componentType" : 5123,
            "count" : 263,
            "type" : "VEC4"
        },
        {
            "bufferView" : 12,
            "componentType" : 5126,
            "count" : 263,
            "type" : "VEC4"
        },
        {
            "bufferView" : 13,
            "componentType" : 5123,
            "count" : 411,
            "type" : "SCALAR"
        },
        {
            "bufferView" : 14,
            "componentType" : 5126,
            "count" : 1045,
            "max" : [
                0.2989496886730194,
                0.7012895345687866,
                -0.9692351818084717
            ],
            "min" : [
                0.2045450508594513,
                0.3367652893066406,
                -1.3637933731079102
            ],
            "type" : "VEC3"
        },
        {
            "bufferView" : 15,
            "componentType" : 5126,
            "count" : 1045,
            "type" : "VEC3"
        },
        {
            "bufferView" : 16,
            "componentType" : 5126,
            "count" : 1045,
            "type" : "VEC2"
        },
        {
            "bufferView" : 17,
            "componentType" : 5126,
            "count" : 1045,
            "type" : "VEC4"
        },
        {
            "bufferView" : 18,
            "componentType" : 5123,
            "count" : 1045,
            "type" : "VEC4"
        },
        {
            "bufferView" : 19,
            "componentType" : 5126,
            "count" : 1045,
            "type" : "VEC4"
        },
        {
            "bufferView" : 20,
            "componentType" : 5123,
            "count" : 1923,
            "type" : "SCALAR"
        },
        {
            "bufferView" : 21,
            "componentType" : 5126,
            "count" : 61,
            "max" : [
                0.2989496886730194,
                0.7163065075874329,
                -0.9692351818084717
            ],
            "min" : [
                0.2045450508594513,
                0.3217482566833496,
                -1.3637933731079102
            ],
            "type" : "VEC3"
        },
        {
            "bufferView" : 22,
            "componentType" : 5126,
            "count" : 61,
            "type" : "VEC3"
        },
        {
            "bufferView" : 23,
            "componentType" : 5126,
            "count" : 61,
            "type" : "VEC2"
        },
        {
            "bufferView" : 24,
            "componentType" : 5126,
            "count" : 61,
            "type" : "VEC4"
        },
        {
            "bufferView" : 25,
            "componentType" : 5123,
            "count" : 61,
            "type" : "VEC4"
        },
        {
            "bufferView" : 26,
            "componentType" : 5126,
            "count" : 61,
            "type" : "VEC4"
        },
        {
            "bufferView" : 27,
            "componentType" : 5126,
            "count" : 263,
            "max" : [
                0.2989496886730194,
                0.7163065075874329,
                -0.9692351818084717
            ],
            "min" : [
                0.2045450508594513,
                0.3217482566833496,
                -1.3637933731079102
            ],
            "type" : "VEC3"
        },
        {
            "bufferView" : 28,
            "componentType" : 5126,
            "count" : 263,
            "type" : "VEC3"
        },
        {
            "bufferView" : 29,
            "componentType" : 5126,
            "count" : 263,
            "type" : "VEC2"
        },
        {
            "bufferView" : 30,
            "componentType" : 5126,
            "count" : 263,
            "type" : "VEC4"
        },
        {
            "bufferView" : 31,
            "componentType" : 5123,
            "count" : 263,
            "type" : "VEC4"
        },
        {
            "bufferView" : 32,
            "componentType" : 5126,
            "count" : 263,
            "type" : "VEC4"
        },
        {
            "bufferView" : 33,
            "componentType" : 5126,
            "count" : 1045,
            "max" : [
                0.2989496886730194,
                0.7012895345687866,
                -0.9692351818084717
            ],
            "min" : [
                0.2045450508594513,
                0.3367652893066406,
                -1.3637933731079102
            ],
            "type" : "VEC3"
        },
        {
            "bufferView" : 34,
            "componentType" : 5126,
            "count" : 1045,
            "type" : "VEC3"
        },
        {
            "bufferView" : 35,
            "componentType" : 5126,
            "count" : 1045,
            "type" : "VEC2"
        },
        {
            "bufferView" : 36,
            "componentType" : 5126,
            "count" : 1045,
            "type" : "VEC4"
        },
        {
            "bufferView" : 37,
            "componentType" : 5123,
            "count" : 1045,
            "type" : "VEC4"
        },
        {
            "bufferView" : 38,
            "componentType" : 5126,
            "count" : 1045,
            "type" : "VEC4"
        }
    ],
    "bufferViews" : [
        {
            "buffer" : 0,
            "byteLength" : 732,
            "byteOffset" : 0
        },
        {
            "buffer" : 0,
            "byteLength" : 732,
            "byteOffset" : 732
        },
        {
            "buffer" : 0,
            "byteLength" : 488,
            "byteOffset" : 1464
        },
        {
            "buffer" : 0,
            "byteLength" : 976,
            "byteOffset" : 1952
        },
        {
            "buffer" : 0,
            "byteLength" : 488,
            "byteOffset" : 2928
        },
        {
            "buffer" : 0,
            "byteLength" : 976,
            "byteOffset" : 3416
        },
        {
            "buffer" : 0,
            "byteLength" : 378,
            "byteOffset" : 4392
        },
        {
            "buffer" : 0,
            "byteLength" : 3156,
            "byteOffset" : 4772
        },
        {
            "buffer" : 0,
            "byteLength" : 3156,
            "byteOffset" : 7928
        },
        {
            "buffer" : 0,
            "byteLength" : 2104,
            "byteOffset" : 11084
        },
        {
            "buffer" : 0,
            "byteLength" : 4208,
            "byteOffset" : 13188
        },
        {
            "buffer" : 0,
            "byteLength" : 2104,
            "byteOffset" : 17396
        },
        {
            "buffer" : 0,
            "byteLength" : 4208,
            "byteOffset" : 19500
        },
        {
            "buffer" : 0,
            "byteLength" : 822,
            "byteOffset" : 23708
        },
        {
            "buffer" : 0,
            "byteLength" : 12540,
            "byteOffset" : 24532
        },
        {
            "buffer" : 0,
            "byteLength" : 12540,
            "byteOffset" : 37072
        },
        {
            "buffer" : 0,
            "byteLength" : 8360,
            "byteOffset" : 49612
        },
        {
            "buffer" : 0,
            "byteLength" : 16720,
            "byteOffset" : 57972
        },
        {
            "buffer" : 0,
            "byteLength" : 8360,
            "byteOffset" : 74692
        },
        {
            "buffer" : 0,
            "byteLength" : 16720,
            "byteOffset" : 83052
        },
        {
            "buffer" : 0,
            "byteLength" : 3846,
            "byteOffset" : 99772
        },
        {
            "buffer" : 0,
            "byteLength" : 732,
            "byteOffset" : 103620
        },
        {
            "buffer" : 0,
            "byteLength" : 732,
            "byteOffset" : 104352
        },
        {
            "buffer" : 0,
            "byteLength" : 488,
            "byteOffset" : 105084
        },
        {
            "buffer" : 0,
            "byteLength" : 976,
            "byteOffset" : 105572
        },
        {
            "buffer" : 0,
            "byteLength" : 488,
            "byteOffset" : 106548
        },
        {
            "buffer" : 0,
            "byteLength" : 976,
            "byteOffset" : 107036
        },
        {
            "buffer" : 0,
            "byteLength" : 3156,
            "byteOffset" : 108012
        },
        {
            "buffer" : 0,
            "byteLength" : 3156,
            "byteOffset" : 111168
        },
        {
            "buffer" : 0,
            "byteLength" : 2104,
            "byteOffset" : 114324
        },
        {
            "buffer" : 0,
            "byteLength" : 4208,
            "byteOffset" : 116428
        },
        {
            "buffer" : 0,
            "byteLength" : 2104,
            "byteOffset" : 120636
        },
        {
            "buffer" : 0,
            "byteLength" : 4208,
            "byteOffset" : 122740
        },
        {
            "buffer" : 0,
            "byteLength" : 12540,
            "byteOffset" : 126948
        },
        {
            "buffer" : 0,
            "byteLength" : 12540,
            "byteOffset" : 139488
        },
        {
            "buffer" : 0,
            "byteLength" : 8360,
            "byteOffset" : 152028
        },
        {
            "buffer" : 0,
            "byteLength" : 16720,
            "byteOffset" : 160388
        },
        {
            "buffer" : 0,
            "byteLength" : 8360,
            "byteOffset" : 177108
        },
        {
            "buffer" : 0,
            "byteLength" : 16720,
            "byteOffset" : 185468
        }
    ],
    "buffers" : [
        {
            "byteLength" : 202188,
            "uri" : "data:application/octet-stream;base64,"
        }
    ]
}
