{
    "asset" : {
        "generator" : "Khronos glTF Blender I/O v0.9.36",
        "version" : "2.0"
    },
    "scene" : 0,
    "scenes" : [
        {
            "extras" : {
                "glTF2ExportSettings" : {
                    "export_animations" : 0,
                    "export_apply" : 1,
                    "export_cameras" : 1,
                    "export_extras" : 1,
                    "export_format" : "GLTF_EMBEDDED",
                    "export_lights" : 1,
                    "export_selected" : 1,
                    "export_tangents" : 1
                }
            },
            "name" : "Scene",
            "nodes" : [
                0,
                1
            ]
        }
    ],
    "nodes" : [
        {
            "mesh" : 0,
            "name" : "Front wheels",
            "scale" : [
                1.6452997922897339,
                1,
                1
            ],
            "translation" : [
                -0.012369219213724136,
                0.0382840596139431,
                0.005469151306897402
            ]
        },
        {
            "name" : "frontWheel",
            "scale" : [
                1.6452997922897339,
                1,
                1
            ],
            "translation" : [
                -0.012369219213724136,
                0.0382840596139431,
                0.005469151306897402
            ]
        }
    ],
    "materials" : [
        {
            "doubleSided" : true,
            "name" : "Material",
            "pbrMetallicRoughness" : {
                "baseColorFactor" : [
                    0.8000000715255737,
                    0.00768893351778388,
                    0.013123353943228722,
                    1
                ],
                "metallicFactor" : 0,
                "roughnessFactor" : 0.4000000059604645
            }
        },
        {
            "doubleSided" : true,
            "name" : "Material Tyre",
            "pbrMetallicRoughness" : {
                "baseColorFactor" : [
                    0.017641957849264145,
                    0.017641955986618996,
                    0.017641957849264145,
                    1
                ],
                "metallicFactor" : 0,
                "roughnessFactor" : 0.699999988079071
            }
        },
        {
            "doubleSided" : true,
            "name" : "Material.005",
            "pbrMetallicRoughness" : {
                "baseColorFactor" : [
                    0.6151750683784485,
                    0.6151750683784485,
                    0.6151750683784485,
                    1
                ],
                "metallicFactor" : 0,
                "roughnessFactor" : 0.2879999876022339
            }
        }
    ],
    "meshes" : [
        {
            "name" : "Cube.001",
            "primitives" : [
                {
                    "attributes" : {
                        "POSITION" : 0,
                        "NORMAL" : 1,
                        "TEXCOORD_0" : 2,
                        "COLOR_0" : 3,
                        "JOINTS_0" : 4,
                        "WEIGHTS_0" : 5
                    },
                    "indices" : 6,
                    "material" : 0
                },
                {
                    "attributes" : {
                        "POSITION" : 7,
                        "NORMAL" : 8,
                        "TEXCOORD_0" : 9,
                        "COLOR_0" : 10,
                        "JOINTS_0" : 11,
                        "WEIGHTS_0" : 12
                    },
                    "indices" : 13,
                    "material" : 1
                },
                {
                    "attributes" : {
                        "POSITION" : 14,
                        "NORMAL" : 15,
                        "TEXCOORD_0" : 16,
                        "COLOR_0" : 17,
                        "JOINTS_0" : 18,
                        "WEIGHTS_0" : 19
                    },
                    "indices" : 20,
                    "material" : 2
                }
            ]
        }
    ],
    "accessors" : [
        {
            "bufferView" : 0,
            "componentType" : 5126,
            "count" : 122,
            "max" : [
                0.2989496886730194,
                0.7163065075874329,
                -0.9692351818084717
            ],
            "min" : [
                -0.2989496886730194,
                0.3217482566833496,
                -1.3637933731079102
            ],
            "type" : "VEC3"
        },
        {
            "bufferView" : 1,
            "componentType" : 5126,
            "count" : 122,
            "type" : "VEC3"
        },
        {
            "bufferView" : 2,
            "componentType" : 5126,
            "count" : 122,
            "type" : "VEC2"
        },
        {
            "bufferView" : 3,
            "componentType" : 5126,
            "count" : 122,
            "type" : "VEC4"
        },
        {
            "bufferView" : 4,
            "componentType" : 5123,
            "count" : 122,
            "type" : "VEC4"
        },
        {
            "bufferView" : 5,
            "componentType" : 5126,
            "count" : 122,
            "type" : "VEC4"
        },
        {
            "bufferView" : 6,
            "componentType" : 5123,
            "count" : 378,
            "type" : "SCALAR"
        },
        {
            "bufferView" : 7,
            "componentType" : 5126,
            "count" : 526,
            "max" : [
                0.2989496886730194,
                0.7163065075874329,
                -0.9692351818084717
            ],
            "min" : [
                -0.2989496886730194,
                0.3217482566833496,
                -1.3637933731079102
            ],
            "type" : "VEC3"
        },
        {
            "bufferView" : 8,
            "componentType" : 5126,
            "count" : 526,
            "type" : "VEC3"
        },
        {
            "bufferView" : 9,
            "componentType" : 5126,
            "count" : 526,
            "type" : "VEC2"
        },
        {
            "bufferView" : 10,
            "componentType" : 5126,
            "count" : 526,
            "type" : "VEC4"
        },
        {
            "bufferView" : 11,
            "componentType" : 5123,
            "count" : 526,
            "type" : "VEC4"
        },
        {
            "bufferView" : 12,
            "componentType" : 5126,
            "count" : 526,
            "type" : "VEC4"
        },
        {
            "bufferView" : 13,
            "componentType" : 5123,
            "count" : 822,
            "type" : "SCALAR"
        },
        {
            "bufferView" : 14,
            "componentType" : 5126,
            "count" : 2096,
            "max" : [
                0.2989496886730194,
                0.7012895345687866,
                -0.9692351818084717
            ],
            "min" : [
                -0.2989496886730194,
                0.3367652893066406,
                -1.3637933731079102
            ],
            "type" : "VEC3"
        },
        {
            "bufferView" : 15,
            "componentType" : 5126,
            "count" : 2096,
            "type" : "VEC3"
        },
        {
            "bufferView" : 16,
            "componentType" : 5126,
            "count" : 2096,
            "type" : "VEC2"
        },
        {
            "bufferView" : 17,
            "componentType" : 5126,
            "count" : 2096,
            "type" : "VEC4"
        },
        {
            "bufferView" : 18,
            "componentType" : 5123,
            "count" : 2096,
            "type" : "VEC4"
        },
        {
            "bufferView" : 19,
            "componentType" : 5126,
            "count" : 2096,
            "type" : "VEC4"
        },
        {
            "bufferView" : 20,
            "componentType" : 5123,
            "count" : 3849,
            "type" : "SCALAR"
        }
    ],
    "bufferViews" : [
        {
            "buffer" : 0,
            "byteLength" : 1464,
            "byteOffset" : 0
        },
        {
            "buffer" : 0,
            "byteLength" : 1464,
            "byteOffset" : 1464
        },
        {
            "buffer" : 0,
            "byteLength" : 976,
            "byteOffset" : 2928
        },
        {
            "buffer" : 0,
            "byteLength" : 1952,
            "byteOffset" : 3904
        },
        {
            "buffer" : 0,
            "byteLength" : 976,
            "byteOffset" : 5856
        },
        {
            "buffer" : 0,
            "byteLength" : 1952,
            "byteOffset" : 6832
        },
        {
            "buffer" : 0,
            "byteLength" : 756,
            "byteOffset" : 8784
        },
        {
            "buffer" : 0,
            "byteLength" : 6312,
            "byteOffset" : 9540
        },
        {
            "buffer" : 0,
            "byteLength" : 6312,
            "byteOffset" : 15852
        },
        {
            "buffer" : 0,
            "byteLength" : 4208,
            "byteOffset" : 22164
        },
        {
            "buffer" : 0,
            "byteLength" : 8416,
            "byteOffset" : 26372
        },
        {
            "buffer" : 0,
            "byteLength" : 4208,
            "byteOffset" : 34788
        },
        {
            "buffer" : 0,
            "byteLength" : 8416,
            "byteOffset" : 38996
        },
        {
            "buffer" : 0,
            "byteLength" : 1644,
            "byteOffset" : 47412
        },
        {
            "buffer" : 0,
            "byteLength" : 25152,
            "byteOffset" : 49056
        },
        {
            "buffer" : 0,
            "byteLength" : 25152,
            "byteOffset" : 74208
        },
        {
            "buffer" : 0,
            "byteLength" : 16768,
            "byteOffset" : 99360
        },
        {
            "buffer" : 0,
            "byteLength" : 33536,
            "byteOffset" : 116128
        },
        {
            "buffer" : 0,
            "byteLength" : 16768,
            "byteOffset" : 149664
        },
        {
            "buffer" : 0,
            "byteLength" : 33536,
            "byteOffset" : 166432
        },
        {
            "buffer" : 0,
            "byteLength" : 7698,
            "byteOffset" : 199968
        }
    ],
    "buffers" : [
        {
            "byteLength" : 207668,
            "uri" : "data:application/octet-stream;base64,"
        }
    ]
}
