{
    "asset" : {
        "generator" : "Khronos glTF Blender I/O v0.9.36",
        "version" : "2.0"
    },
    "scene" : 0,
    "scenes" : [
        {
            "name" : "Scene",
            "nodes" : [
                0,
                1,
                2,
                3
            ]
        }
    ],
    "nodes" : [
        {
            "mesh" : 0,
            "name" : "Back left wheel",
            "rotation" : [
                0,
                0,
                -0.7071067690849304,
                0.7071068286895752
            ],
            "scale" : [
                0.9736972451210022,
                0.9736972451210022,
                0.9736972451210022
            ],
            "translation" : [
                -0.5868294835090637,
                0.5100651383399963,
                0.3900875449180603
            ]
        },
        {
            "mesh" : 1,
            "name" : "Back right wheel",
            "rotation" : [
                0,
                0,
                -0.7071067690849304,
                0.7071068286895752
            ],
            "scale" : [
                0.9736972451210022,
                0.9736972451210022,
                0.9736972451210022
            ],
            "translation" : [
                0.14541316032409668,
                0.5106410384178162,
                0.39471635222435
            ]
        },
        {
            "mesh" : 2,
            "name" : "Front left wheel",
            "rotation" : [
                0,
                0,
                -0.7071067690849304,
                0.7071068286895752
            ],
            "scale" : [
                0.9736972451210022,
                0.9736972451210022,
                0.9736972451210022
            ],
            "translation" : [
                -0.5868294835090637,
                0.5106366872787476,
                -1.1771962642669678
            ]
        },
        {
            "mesh" : 3,
            "name" : "Front right wheel",
            "rotation" : [
                0,
                0,
                -0.7071067690849304,
                0.7071068286895752
            ],
            "scale" : [
                0.9736972451210022,
                0.9736972451210022,
                0.9736972451210022
            ],
            "translation" : [
                0.14541316032409668,
                0.5106410384178162,
                -1.181655764579773
            ]
        }
    ],
    "materials" : [
        {
            "doubleSided" : true,
            "name" : "white",
            "pbrMetallicRoughness" : {
                "baseColorFactor" : [
                    1,
                    1,
                    1,
                    1
                ],
                "metallicFactor" : 0,
                "roughnessFactor" : 0.5
            }
        }
    ],
    "meshes" : [
        {
            "name" : "Circle.010",
            "primitives" : [
                {
                    "attributes" : {
                        "POSITION" : 0,
                        "NORMAL" : 1,
                        "TEXCOORD_0" : 2
                    },
                    "indices" : 3,
                    "material" : 0
                }
            ]
        },
        {
            "name" : "Circle.009",
            "primitives" : [
                {
                    "attributes" : {
                        "POSITION" : 4,
                        "NORMAL" : 5,
                        "TEXCOORD_0" : 6
                    },
                    "indices" : 3,
                    "material" : 0
                }
            ]
        },
        {
            "name" : "Circle.004",
            "primitives" : [
                {
                    "attributes" : {
                        "POSITION" : 7,
                        "NORMAL" : 8,
                        "TEXCOORD_0" : 9
                    },
                    "indices" : 3,
                    "material" : 0
                }
            ]
        },
        {
            "name" : "Circle.002",
            "primitives" : [
                {
                    "attributes" : {
                        "POSITION" : 10,
                        "NORMAL" : 11,
                        "TEXCOORD_0" : 12
                    },
                    "indices" : 3,
                    "material" : 0
                }
            ]
        }
    ],
    "accessors" : [
        {
            "bufferView" : 0,
            "componentType" : 5126,
            "count" : 224,
            "max" : [
                0.20123295485973358,
                0.28924378752708435,
                0.2007392942905426
            ],
            "min" : [
                -0.20547759532928467,
                0.1897028535604477,
                -0.20597121119499207
            ],
            "type" : "VEC3"
        },
        {
            "bufferView" : 1,
            "componentType" : 5126,
            "count" : 224,
            "type" : "VEC3"
        },
        {
            "bufferView" : 2,
            "componentType" : 5126,
            "count" : 224,
            "type" : "VEC2"
        },
        {
            "bufferView" : 3,
            "componentType" : 5123,
            "count" : 468,
            "type" : "SCALAR"
        },
        {
            "bufferView" : 4,
            "componentType" : 5126,
            "count" : 224,
            "max" : [
                0.20123295485973358,
                0.28924378752708435,
                0.2007392942905426
            ],
            "min" : [
                -0.20547759532928467,
                0.1897028535604477,
                -0.20597121119499207
            ],
            "type" : "VEC3"
        },
        {
            "bufferView" : 5,
            "componentType" : 5126,
            "count" : 224,
            "type" : "VEC3"
        },
        {
            "bufferView" : 6,
            "componentType" : 5126,
            "count" : 224,
            "type" : "VEC2"
        },
        {
            "bufferView" : 7,
            "componentType" : 5126,
            "count" : 224,
            "max" : [
                0.20123295485973358,
                0.28924378752708435,
                0.2007392942905426
            ],
            "min" : [
                -0.20547759532928467,
                0.1897028535604477,
                -0.20597121119499207
            ],
            "type" : "VEC3"
        },
        {
            "bufferView" : 8,
            "componentType" : 5126,
            "count" : 224,
            "type" : "VEC3"
        },
        {
            "bufferView" : 9,
            "componentType" : 5126,
            "count" : 224,
            "type" : "VEC2"
        },
        {
            "bufferView" : 10,
            "componentType" : 5126,
            "count" : 224,
            "max" : [
                0.20123295485973358,
                0.28924378752708435,
                0.2007392942905426
            ],
            "min" : [
                -0.20547759532928467,
                0.1897028535604477,
                -0.20597121119499207
            ],
            "type" : "VEC3"
        },
        {
            "bufferView" : 11,
            "componentType" : 5126,
            "count" : 224,
            "type" : "VEC3"
        },
        {
            "bufferView" : 12,
            "componentType" : 5126,
            "count" : 224,
            "type" : "VEC2"
        }
    ],
    "bufferViews" : [
        {
            "buffer" : 0,
            "byteLength" : 2688,
            "byteOffset" : 0
        },
        {
            "buffer" : 0,
            "byteLength" : 2688,
            "byteOffset" : 2688
        },
        {
            "buffer" : 0,
            "byteLength" : 1792,
            "byteOffset" : 5376
        },
        {
            "buffer" : 0,
            "byteLength" : 936,
            "byteOffset" : 7168
        },
        {
            "buffer" : 0,
            "byteLength" : 2688,
            "byteOffset" : 8104
        },
        {
            "buffer" : 0,
            "byteLength" : 2688,
            "byteOffset" : 10792
        },
        {
            "buffer" : 0,
            "byteLength" : 1792,
            "byteOffset" : 13480
        },
        {
            "buffer" : 0,
            "byteLength" : 2688,
            "byteOffset" : 15272
        },
        {
            "buffer" : 0,
            "byteLength" : 2688,
            "byteOffset" : 17960
        },
        {
            "buffer" : 0,
            "byteLength" : 1792,
            "byteOffset" : 20648
        },
        {
            "buffer" : 0,
            "byteLength" : 2688,
            "byteOffset" : 22440
        },
        {
            "buffer" : 0,
            "byteLength" : 2688,
            "byteOffset" : 25128
        },
        {
            "buffer" : 0,
            "byteLength" : 1792,
            "byteOffset" : 27816
        }
    ],
    "buffers" : [
        {
            "byteLength" : 29608,
            "uri" : "data:application/octet-stream;base64,"
        }
    ]
}
