{
    "asset" : {
        "generator" : "Khronos glTF Blender I/O v0.9.36",
        "version" : "2.0"
    },
    "scene" : 0,
    "scenes" : [
        {
            "name" : "Scene",
            "nodes" : [
                0,
                1,
                2,
                3,
                4,
                5,
                6,
                7,
                8,
                9,
                10
            ]
        }
    ],
    "nodes" : [
        {
            "name" : "Light",
            "rotation" : [
                0.16907575726509094,
                0.7558803558349609,
                -0.27217137813568115,
                0.570947527885437
            ],
            "translation" : [
                4.076245307922363,
                5.903861999511719,
                -1.0054539442062378
            ]
        },
        {
            "name" : "Camera",
            "rotation" : [
                0.483536034822464,
                0.33687159419059753,
                -0.20870360732078552,
                0.7804827094078064
            ],
            "translation" : [
                7.358891487121582,
                4.958309173583984,
                6.925790786743164
            ]
        },
        {
            "mesh" : 0,
            "name" : "Main",
            "scale" : [
                0.48678070306777954,
                0.48678070306777954,
                0.48678070306777954
            ],
            "translation" : [
                0,
                0.620900571346283,
                -0.02661687135696411
            ]
        },
        {
            "name" : "Empty",
            "rotation" : [
                0.5,
                0.5,
                -0.5,
                0.4999999701976776
            ]
        },
        {
            "mesh" : 1,
            "name" : "Back right wheel",
            "rotation" : [
                0,
                0,
                -0.7071067690849304,
                0.7071068286895752
            ],
            "scale" : [
                0.9736972451210022,
                0.9736972451210022,
                0.9736972451210022
            ],
            "translation" : [
                0.17322087287902832,
                0.4696796238422394,
                1.5823379755020142
            ]
        },
        {
            "mesh" : 2,
            "name" : "Right wing mirror",
            "scale" : [
                1.4280335903167725,
                1,
                1
            ],
            "translation" : [
                0.06929437071084976,
                -0.01334787905216217,
                1.202204704284668
            ]
        },
        {
            "mesh" : 3,
            "name" : "Left wing mirror",
            "scale" : [
                1.4280335903167725,
                1,
                1
            ],
            "translation" : [
                -0.050350092351436615,
                -0.01334787905216217,
                1.202204704284668
            ]
        },
        {
            "mesh" : 4,
            "name" : "Front right wheel",
            "rotation" : [
                0,
                0,
                -0.7071067690849304,
                0.7071068286895752
            ],
            "scale" : [
                0.9736972451210022,
                0.9736972451210022,
                0.9736972451210022
            ],
            "translation" : [
                0.17322087287902832,
                0.4696796238422394,
                -0.006736084818840027
            ]
        },
        {
            "mesh" : 5,
            "name" : "Front left wheel",
            "rotation" : [
                0,
                0,
                -0.7071067690849304,
                0.7071068286895752
            ],
            "scale" : [
                0.9736972451210022,
                0.9736972451210022,
                0.9736972451210022
            ],
            "translation" : [
                -0.6243666410446167,
                0.4696796238422394,
                -0.006736084818840027
            ]
        },
        {
            "mesh" : 6,
            "name" : "Back left wheel",
            "rotation" : [
                0,
                0,
                -0.7071067690849304,
                0.7071068286895752
            ],
            "scale" : [
                0.9736972451210022,
                0.9736972451210022,
                0.9736972451210022
            ],
            "translation" : [
                -0.6289243102073669,
                0.4696796238422394,
                1.5823379755020142
            ]
        },
        {
            "mesh" : 7,
            "name" : "Front bumper",
            "scale" : [
                0.48678070306777954,
                0.48678070306777954,
                0.48678070306777954
            ],
            "translation" : [
                0,
                0.620900571346283,
                -0.02661687135696411
            ]
        }
    ],
    "materials" : [
        {
            "doubleSided" : true,
            "name" : "white",
            "pbrMetallicRoughness" : {
                "baseColorFactor" : [
                    1,
                    1,
                    1,
                    1
                ],
                "metallicFactor" : 0,
                "roughnessFactor" : 0.4000000059604645
            }
        },
        {
            "doubleSided" : true,
            "name" : "white.001",
            "pbrMetallicRoughness" : {
                "baseColorFactor" : [
                    1,
                    1,
                    1,
                    1
                ],
                "metallicFactor" : 0,
                "roughnessFactor" : 0.4000000059604645
            }
        }
    ],
    "meshes" : [
        {
            "name" : "Cube.001",
            "primitives" : [
                {
                    "attributes" : {
                        "POSITION" : 0,
                        "NORMAL" : 1,
                        "TEXCOORD_0" : 2
                    },
                    "indices" : 3
                }
            ]
        },
        {
            "name" : "Circle.002",
            "primitives" : [
                {
                    "attributes" : {
                        "POSITION" : 4,
                        "NORMAL" : 5,
                        "TEXCOORD_0" : 6
                    },
                    "indices" : 7,
                    "material" : 0
                }
            ]
        },
        {
            "name" : "main.001",
            "primitives" : [
                {
                    "attributes" : {
                        "POSITION" : 8,
                        "NORMAL" : 9,
                        "TEXCOORD_0" : 10,
                        "COLOR_0" : 11
                    },
                    "indices" : 12,
                    "material" : 1
                }
            ]
        },
        {
            "name" : "main.000",
            "primitives" : [
                {
                    "attributes" : {
                        "POSITION" : 13,
                        "NORMAL" : 14,
                        "TEXCOORD_0" : 15,
                        "COLOR_0" : 16
                    },
                    "indices" : 17,
                    "material" : 1
                }
            ]
        },
        {
            "name" : "Circle.001",
            "primitives" : [
                {
                    "attributes" : {
                        "POSITION" : 18,
                        "NORMAL" : 19,
                        "TEXCOORD_0" : 20
                    },
                    "indices" : 7,
                    "material" : 0
                }
            ]
        },
        {
            "name" : "Circle.003",
            "primitives" : [
                {
                    "attributes" : {
                        "POSITION" : 21,
                        "NORMAL" : 22,
                        "TEXCOORD_0" : 23
                    },
                    "indices" : 7,
                    "material" : 0
                }
            ]
        },
        {
            "name" : "Circle.004",
            "primitives" : [
                {
                    "attributes" : {
                        "POSITION" : 24,
                        "NORMAL" : 25,
                        "TEXCOORD_0" : 26
                    },
                    "indices" : 7,
                    "material" : 0
                }
            ]
        },
        {
            "name" : "Cube.000",
            "primitives" : [
                {
                    "attributes" : {
                        "POSITION" : 27,
                        "NORMAL" : 28,
                        "TEXCOORD_0" : 29
                    },
                    "indices" : 30
                }
            ]
        }
    ],
    "accessors" : [
        {
            "bufferView" : 0,
            "componentType" : 5126,
            "count" : 1200,
            "max" : [
                1.0052428245544434,
                1.0536699295043945,
                4.457127571105957
            ],
            "min" : [
                0,
                -0.4565211236476898,
                -1.1400647163391113
            ],
            "type" : "VEC3"
        },
        {
            "bufferView" : 1,
            "componentType" : 5126,
            "count" : 1200,
            "type" : "VEC3"
        },
        {
            "bufferView" : 2,
            "componentType" : 5126,
            "count" : 1200,
            "type" : "VEC2"
        },
        {
            "bufferView" : 3,
            "componentType" : 5123,
            "count" : 2304,
            "type" : "SCALAR"
        },
        {
            "bufferView" : 4,
            "componentType" : 5126,
            "count" : 224,
            "max" : [
                0.20123295485973358,
                0.28924378752708435,
                0.2007392942905426
            ],
            "min" : [
                -0.20547759532928467,
                0.1897028535604477,
                -0.20597121119499207
            ],
            "type" : "VEC3"
        },
        {
            "bufferView" : 5,
            "componentType" : 5126,
            "count" : 224,
            "type" : "VEC3"
        },
        {
            "bufferView" : 6,
            "componentType" : 5126,
            "count" : 224,
            "type" : "VEC2"
        },
        {
            "bufferView" : 7,
            "componentType" : 5123,
            "count" : 468,
            "type" : "SCALAR"
        },
        {
            "bufferView" : 8,
            "componentType" : 5126,
            "count" : 57,
            "max" : [
                0.36272600293159485,
                0.96319580078125,
                -0.7984664440155029
            ],
            "min" : [
                0.2580125033855438,
                0.857932448387146,
                -0.9188099503517151
            ],
            "type" : "VEC3"
        },
        {
            "bufferView" : 9,
            "componentType" : 5126,
            "count" : 57,
            "type" : "VEC3"
        },
        {
            "bufferView" : 10,
            "componentType" : 5126,
            "count" : 57,
            "type" : "VEC2"
        },
        {
            "bufferView" : 11,
            "componentType" : 5126,
            "count" : 57,
            "type" : "VEC4"
        },
        {
            "bufferView" : 12,
            "componentType" : 5123,
            "count" : 87,
            "type" : "SCALAR"
        },
        {
            "bufferView" : 13,
            "componentType" : 5126,
            "count" : 57,
            "max" : [
                -0.2580125033855438,
                0.96319580078125,
                -0.7984664440155029
            ],
            "min" : [
                -0.36272600293159485,
                0.857932448387146,
                -0.9188099503517151
            ],
            "type" : "VEC3"
        },
        {
            "bufferView" : 14,
            "componentType" : 5126,
            "count" : 57,
            "type" : "VEC3"
        },
        {
            "bufferView" : 15,
            "componentType" : 5126,
            "count" : 57,
            "type" : "VEC2"
        },
        {
            "bufferView" : 16,
            "componentType" : 5126,
            "count" : 57,
            "type" : "VEC4"
        },
        {
            "bufferView" : 17,
            "componentType" : 5123,
            "count" : 87,
            "type" : "SCALAR"
        },
        {
            "bufferView" : 18,
            "componentType" : 5126,
            "count" : 224,
            "max" : [
                0.20123295485973358,
                0.28924378752708435,
                0.2007392942905426
            ],
            "min" : [
                -0.20547759532928467,
                0.1897028535604477,
                -0.20597121119499207
            ],
            "type" : "VEC3"
        },
        {
            "bufferView" : 19,
            "componentType" : 5126,
            "count" : 224,
            "type" : "VEC3"
        },
        {
            "bufferView" : 20,
            "componentType" : 5126,
            "count" : 224,
            "type" : "VEC2"
        },
        {
            "bufferView" : 21,
            "componentType" : 5126,
            "count" : 224,
            "max" : [
                0.20123295485973358,
                0.28924378752708435,
                0.2007392942905426
            ],
            "min" : [
                -0.20547759532928467,
                0.1897028535604477,
                -0.20597121119499207
            ],
            "type" : "VEC3"
        },
        {
            "bufferView" : 22,
            "componentType" : 5126,
            "count" : 224,
            "type" : "VEC3"
        },
        {
            "bufferView" : 23,
            "componentType" : 5126,
            "count" : 224,
            "type" : "VEC2"
        },
        {
            "bufferView" : 24,
            "componentType" : 5126,
            "count" : 224,
            "max" : [
                0.20123295485973358,
                0.28924378752708435,
                0.2007392942905426
            ],
            "min" : [
                -0.20547759532928467,
                0.1897028535604477,
                -0.20597121119499207
            ],
            "type" : "VEC3"
        },
        {
            "bufferView" : 25,
            "componentType" : 5126,
            "count" : 224,
            "type" : "VEC3"
        },
        {
            "bufferView" : 26,
            "componentType" : 5126,
            "count" : 224,
            "type" : "VEC2"
        },
        {
            "bufferView" : 27,
            "componentType" : 5126,
            "count" : 87,
            "max" : [
                1.0191292762756348,
                0.649696409702301,
                4.269749164581299
            ],
            "min" : [
                0,
                -0.4560621976852417,
                -1.1700689792633057
            ],
            "type" : "VEC3"
        },
        {
            "bufferView" : 28,
            "componentType" : 5126,
            "count" : 87,
            "type" : "VEC3"
        },
        {
            "bufferView" : 29,
            "componentType" : 5126,
            "count" : 87,
            "type" : "VEC2"
        },
        {
            "bufferView" : 30,
            "componentType" : 5123,
            "count" : 132,
            "type" : "SCALAR"
        }
    ],
    "bufferViews" : [
        {
            "buffer" : 0,
            "byteLength" : 14400,
            "byteOffset" : 0
        },
        {
            "buffer" : 0,
            "byteLength" : 14400,
            "byteOffset" : 14400
        },
        {
            "buffer" : 0,
            "byteLength" : 9600,
            "byteOffset" : 28800
        },
        {
            "buffer" : 0,
            "byteLength" : 4608,
            "byteOffset" : 38400
        },
        {
            "buffer" : 0,
            "byteLength" : 2688,
            "byteOffset" : 43008
        },
        {
            "buffer" : 0,
            "byteLength" : 2688,
            "byteOffset" : 45696
        },
        {
            "buffer" : 0,
            "byteLength" : 1792,
            "byteOffset" : 48384
        },
        {
            "buffer" : 0,
            "byteLength" : 936,
            "byteOffset" : 50176
        },
        {
            "buffer" : 0,
            "byteLength" : 684,
            "byteOffset" : 51112
        },
        {
            "buffer" : 0,
            "byteLength" : 684,
            "byteOffset" : 51796
        },
        {
            "buffer" : 0,
            "byteLength" : 456,
            "byteOffset" : 52480
        },
        {
            "buffer" : 0,
            "byteLength" : 912,
            "byteOffset" : 52936
        },
        {
            "buffer" : 0,
            "byteLength" : 174,
            "byteOffset" : 53848
        },
        {
            "buffer" : 0,
            "byteLength" : 684,
            "byteOffset" : 54024
        },
        {
            "buffer" : 0,
            "byteLength" : 684,
            "byteOffset" : 54708
        },
        {
            "buffer" : 0,
            "byteLength" : 456,
            "byteOffset" : 55392
        },
        {
            "buffer" : 0,
            "byteLength" : 912,
            "byteOffset" : 55848
        },
        {
            "buffer" : 0,
            "byteLength" : 174,
            "byteOffset" : 56760
        },
        {
            "buffer" : 0,
            "byteLength" : 2688,
            "byteOffset" : 56936
        },
        {
            "buffer" : 0,
            "byteLength" : 2688,
            "byteOffset" : 59624
        },
        {
            "buffer" : 0,
            "byteLength" : 1792,
            "byteOffset" : 62312
        },
        {
            "buffer" : 0,
            "byteLength" : 2688,
            "byteOffset" : 64104
        },
        {
            "buffer" : 0,
            "byteLength" : 2688,
            "byteOffset" : 66792
        },
        {
            "buffer" : 0,
            "byteLength" : 1792,
            "byteOffset" : 69480
        },
        {
            "buffer" : 0,
            "byteLength" : 2688,
            "byteOffset" : 71272
        },
        {
            "buffer" : 0,
            "byteLength" : 2688,
            "byteOffset" : 73960
        },
        {
            "buffer" : 0,
            "byteLength" : 1792,
            "byteOffset" : 76648
        },
        {
            "buffer" : 0,
            "byteLength" : 1044,
            "byteOffset" : 78440
        },
        {
            "buffer" : 0,
            "byteLength" : 1044,
            "byteOffset" : 79484
        },
        {
            "buffer" : 0,
            "byteLength" : 696,
            "byteOffset" : 80528
        },
        {
            "buffer" : 0,
            "byteLength" : 264,
            "byteOffset" : 81224
        }
    ],
    "buffers" : [
        {
            "byteLength" : 81488,
            "uri" : "data:application/octet-stream;base64,"
        }
    ]
}
