{
    "asset" : {
        "generator" : "Khronos glTF Blender I/O v0.9.36",
        "version" : "2.0"
    },
    "scene" : 0,
    "scenes" : [
        {
            "extras" : {
                "glTF2ExportSettings" : {
                    "export_extras" : 1,
                    "export_format" : "GLTF_EMBEDDED",
                    "export_selected" : 1,
                    "export_texcoords" : 0
                }
            },
            "name" : "Scene",
            "nodes" : [
                0,
                1,
                2,
                3,
                4,
                5,
                6,
                7,
                8,
                9
            ]
        }
    ],
    "nodes" : [
        {
            "mesh" : 0,
            "name" : "Main",
            "scale" : [
                0.48678070306777954,
                0.48678070306777954,
                0.48678070306777954
            ],
            "translation" : [
                0,
                0.620900571346283,
                -0.02661687135696411
            ]
        },
        {
            "name" : "Empty",
            "rotation" : [
                0.5,
                0.5,
                -0.5,
                0.4999999701976776
            ]
        },
        {
            "mesh" : 1,
            "name" : "Back right wheel",
            "rotation" : [
                0,
                0,
                -0.7071067690849304,
                0.7071068286895752
            ],
            "scale" : [
                0.9736972451210022,
                0.9736972451210022,
                0.9736972451210022
            ],
            "translation" : [
                0.17322087287902832,
                0.4696796238422394,
                1.5823379755020142
            ]
        },
        {
            "mesh" : 2,
            "name" : "Right wing mirror",
            "scale" : [
                1.4280335903167725,
                1,
                1
            ],
            "translation" : [
                0.06929437071084976,
                -0.01334787905216217,
                1.202204704284668
            ]
        },
        {
            "mesh" : 3,
            "name" : "Left wing mirror",
            "scale" : [
                1.4280335903167725,
                1,
                1
            ],
            "translation" : [
                -0.050350092351436615,
                -0.01334787905216217,
                1.202204704284668
            ]
        },
        {
            "mesh" : 4,
            "name" : "Front right wheel",
            "rotation" : [
                0,
                0,
                -0.7071067690849304,
                0.7071068286895752
            ],
            "scale" : [
                0.9736972451210022,
                0.9736972451210022,
                0.9736972451210022
            ],
            "translation" : [
                0.17322087287902832,
                0.4696796238422394,
                -0.006736084818840027
            ]
        },
        {
            "mesh" : 5,
            "name" : "Front left wheel",
            "rotation" : [
                0,
                0,
                -0.7071067690849304,
                0.7071068286895752
            ],
            "scale" : [
                0.9736972451210022,
                0.9736972451210022,
                0.9736972451210022
            ],
            "translation" : [
                -0.6243666410446167,
                0.4696796238422394,
                -0.006736084818840027
            ]
        },
        {
            "mesh" : 6,
            "name" : "Back left wheel",
            "rotation" : [
                0,
                0,
                -0.7071067690849304,
                0.7071068286895752
            ],
            "scale" : [
                0.9736972451210022,
                0.9736972451210022,
                0.9736972451210022
            ],
            "translation" : [
                -0.6289243102073669,
                0.4696796238422394,
                1.5823379755020142
            ]
        },
        {
            "mesh" : 7,
            "name" : "Front bumper",
            "scale" : [
                0.48678070306777954,
                0.48678070306777954,
                0.48678070306777954
            ],
            "translation" : [
                0,
                0.620900571346283,
                -0.02661687135696411
            ]
        },
        {
            "mesh" : 8,
            "name" : "Roof",
            "scale" : [
                0.48678070306777954,
                0.48678070306777954,
                0.48678070306777954
            ],
            "translation" : [
                0,
                0.620900571346283,
                -0.02661687135696411
            ]
        }
    ],
    "materials" : [
        {
            "doubleSided" : true,
            "name" : "white",
            "pbrMetallicRoughness" : {
                "baseColorFactor" : [
                    1,
                    1,
                    1,
                    1
                ],
                "metallicFactor" : 0,
                "roughnessFactor" : 0.4000000059604645
            }
        },
        {
            "doubleSided" : true,
            "name" : "white.001",
            "pbrMetallicRoughness" : {
                "baseColorFactor" : [
                    1,
                    1,
                    1,
                    1
                ],
                "metallicFactor" : 0,
                "roughnessFactor" : 0.4000000059604645
            }
        }
    ],
    "meshes" : [
        {
            "name" : "Cube.001",
            "primitives" : [
                {
                    "attributes" : {
                        "POSITION" : 0,
                        "NORMAL" : 1
                    },
                    "indices" : 2
                }
            ]
        },
        {
            "name" : "Circle.002",
            "primitives" : [
                {
                    "attributes" : {
                        "POSITION" : 3,
                        "NORMAL" : 4
                    },
                    "indices" : 5,
                    "material" : 0
                }
            ]
        },
        {
            "name" : "main.001",
            "primitives" : [
                {
                    "attributes" : {
                        "POSITION" : 6,
                        "NORMAL" : 7,
                        "COLOR_0" : 8
                    },
                    "indices" : 9,
                    "material" : 1
                }
            ]
        },
        {
            "name" : "main.000",
            "primitives" : [
                {
                    "attributes" : {
                        "POSITION" : 10,
                        "NORMAL" : 11,
                        "COLOR_0" : 12
                    },
                    "indices" : 13,
                    "material" : 1
                }
            ]
        },
        {
            "name" : "Circle.001",
            "primitives" : [
                {
                    "attributes" : {
                        "POSITION" : 14,
                        "NORMAL" : 15
                    },
                    "indices" : 5,
                    "material" : 0
                }
            ]
        },
        {
            "name" : "Circle.003",
            "primitives" : [
                {
                    "attributes" : {
                        "POSITION" : 16,
                        "NORMAL" : 17
                    },
                    "indices" : 5,
                    "material" : 0
                }
            ]
        },
        {
            "name" : "Circle.004",
            "primitives" : [
                {
                    "attributes" : {
                        "POSITION" : 18,
                        "NORMAL" : 19
                    },
                    "indices" : 5,
                    "material" : 0
                }
            ]
        },
        {
            "name" : "Cube.000",
            "primitives" : [
                {
                    "attributes" : {
                        "POSITION" : 20,
                        "NORMAL" : 21
                    },
                    "indices" : 22
                }
            ]
        },
        {
            "name" : "Cube.002",
            "primitives" : [
                {
                    "attributes" : {
                        "POSITION" : 23,
                        "NORMAL" : 24
                    },
                    "indices" : 25
                }
            ]
        }
    ],
    "accessors" : [
        {
            "bufferView" : 0,
            "componentType" : 5126,
            "count" : 1228,
            "max" : [
                1.0052428245544434,
                1.0536699295043945,
                4.457127571105957
            ],
            "min" : [
                0,
                -0.4565211236476898,
                -1.1400647163391113
            ],
            "type" : "VEC3"
        },
        {
            "bufferView" : 1,
            "componentType" : 5126,
            "count" : 1228,
            "type" : "VEC3"
        },
        {
            "bufferView" : 2,
            "componentType" : 5123,
            "count" : 2370,
            "type" : "SCALAR"
        },
        {
            "bufferView" : 3,
            "componentType" : 5126,
            "count" : 224,
            "max" : [
                0.20123295485973358,
                0.28924378752708435,
                0.2007392942905426
            ],
            "min" : [
                -0.20547759532928467,
                0.1897028535604477,
                -0.20597121119499207
            ],
            "type" : "VEC3"
        },
        {
            "bufferView" : 4,
            "componentType" : 5126,
            "count" : 224,
            "type" : "VEC3"
        },
        {
            "bufferView" : 5,
            "componentType" : 5123,
            "count" : 468,
            "type" : "SCALAR"
        },
        {
            "bufferView" : 6,
            "componentType" : 5126,
            "count" : 57,
            "max" : [
                0.36272600293159485,
                0.96319580078125,
                -0.7984664440155029
            ],
            "min" : [
                0.2580125033855438,
                0.857932448387146,
                -0.9188099503517151
            ],
            "type" : "VEC3"
        },
        {
            "bufferView" : 7,
            "componentType" : 5126,
            "count" : 57,
            "type" : "VEC3"
        },
        {
            "bufferView" : 8,
            "componentType" : 5126,
            "count" : 57,
            "type" : "VEC4"
        },
        {
            "bufferView" : 9,
            "componentType" : 5123,
            "count" : 87,
            "type" : "SCALAR"
        },
        {
            "bufferView" : 10,
            "componentType" : 5126,
            "count" : 57,
            "max" : [
                -0.2580125033855438,
                0.96319580078125,
                -0.7984664440155029
            ],
            "min" : [
                -0.36272600293159485,
                0.857932448387146,
                -0.9188099503517151
            ],
            "type" : "VEC3"
        },
        {
            "bufferView" : 11,
            "componentType" : 5126,
            "count" : 57,
            "type" : "VEC3"
        },
        {
            "bufferView" : 12,
            "componentType" : 5126,
            "count" : 57,
            "type" : "VEC4"
        },
        {
            "bufferView" : 13,
            "componentType" : 5123,
            "count" : 87,
            "type" : "SCALAR"
        },
        {
            "bufferView" : 14,
            "componentType" : 5126,
            "count" : 224,
            "max" : [
                0.20123295485973358,
                0.28924378752708435,
                0.2007392942905426
            ],
            "min" : [
                -0.20547759532928467,
                0.1897028535604477,
                -0.20597121119499207
            ],
            "type" : "VEC3"
        },
        {
            "bufferView" : 15,
            "componentType" : 5126,
            "count" : 224,
            "type" : "VEC3"
        },
        {
            "bufferView" : 16,
            "componentType" : 5126,
            "count" : 224,
            "max" : [
                0.20123295485973358,
                0.28924378752708435,
                0.2007392942905426
            ],
            "min" : [
                -0.20547759532928467,
                0.1897028535604477,
                -0.20597121119499207
            ],
            "type" : "VEC3"
        },
        {
            "bufferView" : 17,
            "componentType" : 5126,
            "count" : 224,
            "type" : "VEC3"
        },
        {
            "bufferView" : 18,
            "componentType" : 5126,
            "count" : 224,
            "max" : [
                0.20123295485973358,
                0.28924378752708435,
                0.2007392942905426
            ],
            "min" : [
                -0.20547759532928467,
                0.1897028535604477,
                -0.20597121119499207
            ],
            "type" : "VEC3"
        },
        {
            "bufferView" : 19,
            "componentType" : 5126,
            "count" : 224,
            "type" : "VEC3"
        },
        {
            "bufferView" : 20,
            "componentType" : 5126,
            "count" : 87,
            "max" : [
                1.0191292762756348,
                0.649696409702301,
                4.269749164581299
            ],
            "min" : [
                0,
                -0.4560621976852417,
                -1.1700689792633057
            ],
            "type" : "VEC3"
        },
        {
            "bufferView" : 21,
            "componentType" : 5126,
            "count" : 87,
            "type" : "VEC3"
        },
        {
            "bufferView" : 22,
            "componentType" : 5123,
            "count" : 132,
            "type" : "SCALAR"
        },
        {
            "bufferView" : 23,
            "componentType" : 5126,
            "count" : 16,
            "max" : [
                0.8229180574417114,
                1.051756501197815,
                2.806547164916992
            ],
            "min" : [
                0,
                0.9824540019035339,
                1.4394855499267578
            ],
            "type" : "VEC3"
        },
        {
            "bufferView" : 24,
            "componentType" : 5126,
            "count" : 16,
            "type" : "VEC3"
        },
        {
            "bufferView" : 25,
            "componentType" : 5123,
            "count" : 24,
            "type" : "SCALAR"
        }
    ],
    "bufferViews" : [
        {
            "buffer" : 0,
            "byteLength" : 14736,
            "byteOffset" : 0
        },
        {
            "buffer" : 0,
            "byteLength" : 14736,
            "byteOffset" : 14736
        },
        {
            "buffer" : 0,
            "byteLength" : 4740,
            "byteOffset" : 29472
        },
        {
            "buffer" : 0,
            "byteLength" : 2688,
            "byteOffset" : 34212
        },
        {
            "buffer" : 0,
            "byteLength" : 2688,
            "byteOffset" : 36900
        },
        {
            "buffer" : 0,
            "byteLength" : 936,
            "byteOffset" : 39588
        },
        {
            "buffer" : 0,
            "byteLength" : 684,
            "byteOffset" : 40524
        },
        {
            "buffer" : 0,
            "byteLength" : 684,
            "byteOffset" : 41208
        },
        {
            "buffer" : 0,
            "byteLength" : 912,
            "byteOffset" : 41892
        },
        {
            "buffer" : 0,
            "byteLength" : 174,
            "byteOffset" : 42804
        },
        {
            "buffer" : 0,
            "byteLength" : 684,
            "byteOffset" : 42980
        },
        {
            "buffer" : 0,
            "byteLength" : 684,
            "byteOffset" : 43664
        },
        {
            "buffer" : 0,
            "byteLength" : 912,
            "byteOffset" : 44348
        },
        {
            "buffer" : 0,
            "byteLength" : 174,
            "byteOffset" : 45260
        },
        {
            "buffer" : 0,
            "byteLength" : 2688,
            "byteOffset" : 45436
        },
        {
            "buffer" : 0,
            "byteLength" : 2688,
            "byteOffset" : 48124
        },
        {
            "buffer" : 0,
            "byteLength" : 2688,
            "byteOffset" : 50812
        },
        {
            "buffer" : 0,
            "byteLength" : 2688,
            "byteOffset" : 53500
        },
        {
            "buffer" : 0,
            "byteLength" : 2688,
            "byteOffset" : 56188
        },
        {
            "buffer" : 0,
            "byteLength" : 2688,
            "byteOffset" : 58876
        },
        {
            "buffer" : 0,
            "byteLength" : 1044,
            "byteOffset" : 61564
        },
        {
            "buffer" : 0,
            "byteLength" : 1044,
            "byteOffset" : 62608
        },
        {
            "buffer" : 0,
            "byteLength" : 264,
            "byteOffset" : 63652
        },
        {
            "buffer" : 0,
            "byteLength" : 192,
            "byteOffset" : 63916
        },
        {
            "buffer" : 0,
            "byteLength" : 192,
            "byteOffset" : 64108
        },
        {
            "buffer" : 0,
            "byteLength" : 48,
            "byteOffset" : 64300
        }
    ],
    "buffers" : [
        {
            "byteLength" : 64348,
            "uri" : "data:application/octet-stream;base64,"
        }
    ]
}
